<svg xmlns="http://www.w3.org/2000/svg" viewBox="0 0 96 96">
  <path d="M0 47.9C0 21.4 21.5 0 48.2 0 74.7 0 96 21.6 96 48.3 96 74.7 74.4 96 47.6 96 21.4 96 0 74.4 0 47.9zm50.6-3.8v-3.3c0-.7-.1-1-1-1-2.6.1-5.2 0-7.7 0-.7 0-1 .2-1 1v30.6c0 .7.2.9.9.9 2.7 0 5.3-.1 8 0 .9 0 1.2-.2 1.2-1.1V56.7c0-1.9.1-3.8.9-5.6.9-2.2 3-3.3 5.9-3.1 2.2.2 3.5 1.3 4.1 3.7.4 1.3.4 2.7.4 4.1v15.6c0 .8.2 1 1 1 2.6-.1 5.2-.1 7.9 0 .9 0 1.3-.2 1.2-1.2-.1-5.2 0-10.4 0-15.6 0-2.6 0-5.2-.5-7.7-.8-4-2.8-6.9-6.8-8.2-5.8-1.8-10.4-.5-14.5 4.4zM24.4 56v15.3c0 .8.1 1.1 1 1.1 2.7-.1 5.5 0 8.2 0 .7 0 .9-.2.9-.9V40.9c0-.8-.2-1-1-1-2.7 0-5.3.1-8 0-.9 0-1.2.2-1.2 1.2.2 4.9.1 9.9.1 14.9zm5.1-32.3c-3.3 0-5.9 2.5-5.9 5.7 0 3.4 2.6 6 5.8 6 3.2 0 5.9-2.7 5.9-5.9.1-3.3-2.4-5.8-5.8-5.8z"/>
</svg>
