<svg xmlns="http://www.w3.org/2000/svg" viewBox="0 0 96 96">
  <path d="M96 48.1C96 74.6 74.5 96 47.7 96 21.3 96 0 74.4 0 47.7 0 21.3 21.6 0 48.4 0 74.6 0 96 21.6 96 48.1zM16.2 68.3l-.1-.1s0 .1.1.1c-.1 0 0 0 0 0 .1.2.3.3.5.4 11.8 6.7 24 7.6 36.1 1.5 13.9-7 20.4-18.9 20.8-34.3 0-.8.2-1.3.9-1.9 2-1.6 3.9-3.4 5.3-5.7 0 0 .2 0 0-.2 0 0 0 .1-.1.1-.5-.2-1 .2-1.5.3-1.7.6-3.4 1.1-5.4 1.3 1.3-1.1 2.5-1.9 3.3-3.1.8-1.2 1.7-2.3 2-4-2.3 1.2-4.5 2.1-6.9 2.7-.9.2-1.5.1-2.2-.5-4.2-3.8-10.3-4.4-15.2-1.7-4.8 2.6-7.5 8.1-6.7 13.6.1.8 0 1-.8.9-3.3-.4-6.6-1-9.8-2.1-6-2.1-11.1-5.7-15.4-10.4-1.2-1.3-1.2-1.3-1.8.3-1.8 4.8-1.3 9.3 2 13.5.7.9 1.6 1.6 2.6 2.5-1.9-.1-3.4-.5-4.9-1.2-.7-.3-.9-.3-.8.5.8 6.3 4 10.2 9.5 12.2.2.1.5.1.7.4-1.7.5-3.5.4-5.4.2 2.2 5.6 6.2 8.6 12 9.2 0 .2-.1.3-.2.4-3.2 2.3-6.7 3.9-10.6 4.7-2.7.5-5.4.4-8 .4z"/>
</svg>
