<svg xmlns="http://www.w3.org/2000/svg" viewBox="0 0 96 96">
  <path class="st0" d="M48 96C21.4 96 0 74.5 0 47.8 0 21.3 21.6 0 48.4 0 74.7 0 96 21.7 96 48.4 96 74.6 74.4 96 48 96zm6.7-32.8V47.5c0-.8.2-1.1 1-1.1 2.7.1 5.4 0 8.1 0 .8 0 1.1-.2 1.1-1 0-3 0-6 .1-9 0-.8-.3-.9-1-.9h-5.9c-1.1 0-2.6.5-3.3-.2-.7-.8-.2-2.2-.2-3.4.1-2.9 2-4.8 5-4.8 1.4 0 2.7 0 4.1.1.9.1 1.1-.3 1.1-1.1 0-3 0-6 .1-9 0-.5-.1-.8-.7-.8-3.8 0-7.5-.3-11.3-.1-7.8.3-12.9 6.7-12.7 13.2.1 1.8-.1 3.6-.1 5.4 0 .7-.3.9-1 .9h-7.3c-.8 0-1 .2-1 1 0 3 .1 5.9 0 8.9 0 .9.3 1.1 1.1 1.1h6.9c1 0 1.3.3 1.3 1.3v31.2c0 .9.2 1.1 1.1 1.1 4 0 8.1-.1 12.1 0 1 0 1.2-.3 1.2-1.3.2-5.4.2-10.6.2-15.8z"/>
</svg>
