<svg id="Calque_1" xmlns="http://www.w3.org/2000/svg" viewBox="0 0 96 96">
  <path class="st0" d="M48 0C21.5 0 0 21.5 0 48s21.5 48 48 48 48-21.5 48-48S74.5 0 48 0zm0 86.8C26.6 86.8 9.2 69.4 9.2 48S26.6 9.2 48 9.2 86.8 26.6 86.8 48 69.4 86.8 48 86.8zM58.8 24c-4.1 0-8 1.7-10.8 4.7-2.8-3-6.6-4.7-10.8-4.7-8.1 0-14.8 6.6-14.8 14.8S29 53.6 37.2 53.6c4.1 0 8-1.7 10.8-4.7 2.8 3 6.6 4.7 10.8 4.7 8.1 0 14.8-6.6 14.8-14.8S66.9 24 58.8 24zm0 25.8c-3.7 0-7.2-1.9-9.2-5-.3-.5-.9-.8-1.5-.8s-1.2.3-1.5.8c-2.1 3.1-5.5 5-9.2 5-6.1 0-11.1-5-11.1-11.1s5-11.1 11.1-11.1c3.7 0 7.2 1.9 9.2 5 .7 1 2.4 1 3.1 0 2.1-3.1 5.5-5 9.2-5 6.1 0 11.1 5 11.1 11.1s-5.1 11.1-11.2 11.1zm-20-16.6c-3.1 0-5.5 2.5-5.5 5.5s2.5 5.5 5.5 5.5c3.1 0 5.5-2.5 5.5-5.5s-2.5-5.5-5.5-5.5zm18.4 0c-3.1 0-5.5 2.5-5.5 5.5s2.5 5.5 5.5 5.5c3.1 0 5.5-2.5 5.5-5.5s-2.4-5.5-5.5-5.5zM48 59.1c-6.1 0-11.1 5-11.1 11.1s5 11.1 11.1 11.1 11.1-5 11.1-11.1-5-11.1-11.1-11.1z"/>
</svg>
