<svg xmlns="http://www.w3.org/2000/svg" viewBox="0 0 96 96">
  <path class="st0" d="M70.2 51.2c-1.9-.6-4 .5-4.6 2.4-2.4 7.7-9.5 12.9-17.6 12.9-2 0-3.7 1.7-3.7 3.7s1.7 3.7 3.7 3.7c11.3 0 21.2-7.3 24.6-18 .6-2-.4-4.1-2.4-4.7zM48 0C21.5 0 0 21.5 0 48s21.5 48 48 48 48-21.5 48-48S74.5 0 48 0zm0 86.8C26.6 86.8 9.2 69.4 9.2 48S26.6 9.2 48 9.2 86.8 26.6 86.8 48 69.4 86.8 48 86.8zM35.1 35.1c-3.1 0-5.5 2.5-5.5 5.5 0 3.1 2.5 5.5 5.5 5.5 3.1 0 5.5-2.5 5.5-5.5s-2.5-5.5-5.5-5.5zm15.7 7.7c.9.5 2 .2 2.5-.7 1.2-2.1 3.4-3.4 5.8-3.4s4.6 1.3 5.8 3.4c.3.6 1 .9 1.6.9.3 0 .6-.1.9-.2.9-.5 1.2-1.6.7-2.5-1.8-3.2-5.3-5.2-9-5.2s-7.1 2-9 5.2c-.5.9-.2 2 .7 2.5z"/>
</svg>
