<svg xmlns="http://www.w3.org/2000/svg" viewBox="0 0 96 96">
  <path d="M48 0C21.5 0 0 21.5 0 48s21.5 48 48 48 48-21.5 48-48S74.5 0 48 0zm0 86.8C26.6 86.8 9.2 69.4 9.2 48S26.6 9.2 48 9.2 86.8 26.6 86.8 48 69.4 86.8 48 86.8zm29.5-42.5c-2 0-3.7 1.7-3.7 3.7 0 14.3-11.6 25.8-25.8 25.8-14.3 0-25.8-11.6-25.8-25.8 0-2-1.7-3.7-3.7-3.7S14.8 46 14.8 48c0 18.3 14.9 33.2 33.2 33.2 18.3 0 33.2-14.9 33.2-33.2 0-2-1.6-3.7-3.7-3.7zm-18.4.8v2.2c0 .4.3.7.7.7h2.8c.4 0 .7-.3.7-.7v-2.2c1.9-.3 3.4-1 4.5-2.1 1.2-1.2 1.8-2.6 1.8-4.3 0-1.2-.3-2.3-.9-3.2-.6-.9-1.4-1.5-2.3-1.9-1-.4-2.7-.9-5-1.4-1.5-.3-2-.6-2.2-.8-.3-.3-.5-.8-.5-1.2 0-.7.3-1.9 2.6-1.9 1.2 0 2.1.3 2.8 1 .2.2.4.5.6.8v.1c.1.1.2.2.4.2h3.6c.3 0 .5-.2.5-.5 0-.1-.1-.3-.1-.5-1-2.5-2.9-4-5.8-4.5v-2.1c0-.4-.3-.7-.7-.7h-2.8c-.4 0-.7.3-.7.7V25c-1.8.4-3.1 1.1-4 2.1-1 1.2-1.5 2.5-1.5 4 0 1.4.4 2.5 1.3 3.6.9 1 3.1 1.9 6.6 2.6 1 .2 1.7.4 2.1.8.5.4.8.9.8 1.5 0 .8-.5 1.8-2.9 1.8-.8 0-1.5-.1-2.1-.4-.8-.4-1.5-1-1.9-1.8 0-.2-.2-.2-.3-.2h-4c-.3 0-.5.2-.5.4v.2c1 3.1 3.1 4.9 6.4 5.5zm-26.4 0v2.2c0 .4.3.7.7.7h2.8c.4 0 .7-.3.7-.7v-2.2c1.9-.3 3.4-1 4.5-2.1 1.2-1.2 1.8-2.6 1.8-4.3 0-1.2-.3-2.3-.9-3.2-.6-.9-1.4-1.5-2.3-1.9-1-.4-2.7-.9-5.1-1.4-1.5-.3-2-.6-2.2-.8-.3-.3-.5-.8-.5-1.2 0-.7.3-1.9 2.6-1.9 1.2 0 2.1.3 2.8 1 .2.2.4.5.6.8v.1c.1.1.2.2.4.2h3.6c.3 0 .5-.2.5-.5 0-.1-.1-.3-.1-.5-1-2.5-2.9-4-5.8-4.5v-2.1c0-.4-.3-.7-.7-.7h-2.8c-.4 0-.7.3-.7.7V25c-1.7.4-3.1 1.1-4 2.1-1 1.2-1.5 2.5-1.5 4 0 1.4.4 2.5 1.3 3.6.9 1 3.1 1.9 6.6 2.6 1 .2 1.7.4 2.1.8.5.4.8.9.8 1.5 0 .8-.5 1.8-2.9 1.8-.8 0-1.5-.1-2.1-.4-.8-.4-1.5-1-1.9-1.8.1-.2-.1-.2-.3-.2h-4c-.3 0-.5.2-.5.4v.2c1.1 3.1 3.1 4.9 6.5 5.5z"/>
</svg>
