<svg xmlns="http://www.w3.org/2000/svg" viewBox="0 0 96 96">
  <path d="M71.9 58.4c-1.7-1.1-4-.5-5.1 1.2-4 6.5-11 10.3-18.8 10.3S33.2 66 29.2 59.6c-1.1-1.7-3.3-2.3-5.1-1.2-1.7 1.1-2.3 3.3-1.2 5.1 5.3 8.7 14.7 13.8 25.1 13.8s19.8-5.2 25.1-13.8c1.1-1.7.5-4-1.2-5.1zM48 0C21.5 0 0 21.5 0 48s21.5 48 48 48 48-21.5 48-48S74.5 0 48 0zm0 86.8C26.6 86.8 9.2 69.4 9.2 48S26.6 9.2 48 9.2 86.8 26.6 86.8 48 69.4 86.8 48 86.8zm12.9-40.7l9.6-9.6c2-2 2-5.2 0-7.2s-5.2-2-7.2 0l-2.4 2.4-2.4-2.4c-2-2-5.2-2-7.2 0s-2 5.2 0 7.2c3.2 3.1 1 .9 9.6 9.6zm-25.8 0l9.6-9.6c2-2 2-5.2 0-7.2s-5.2-2-7.2 0l-2.4 2.4-2.4-2.4c-2-2-5.2-2-7.2 0s-2 5.2 0 7.2c3.2 3.1.9.9 9.6 9.6z"/>
</svg>
