<svg xmlns="http://www.w3.org/2000/svg" viewBox="0 0 96 96">
  <path d="M72.1 50.6c-2-.5-4 .6-4.5 2.6-2.4 8.9-10.4 15.1-19.6 15.1-9.2 0-17.2-6.2-19.6-15.1-.5-2-2.5-3.1-4.5-2.6s-3.1 2.5-2.6 4.5c2.4 9 9.1 16 17.5 19v.6c0 5.1 4.2 9.2 9.2 9.2s9.2-4.2 9.2-9.2v-.6c8.4-3 15.1-10 17.5-19 .6-2-.6-4-2.6-4.5zM53.5 74.7c0 3.1-2.5 5.5-5.5 5.5-3.1 0-5.5-2.5-5.5-5.5v-3.4c1.6.4 3.2.6 4.9.7v4.6c0 .3.3.6.6.6s.6-.3.6-.6V72c1.7 0 3.3-.3 4.9-.7v3.4zM48 0C21.5 0 0 21.5 0 48s21.5 48 48 48 48-21.5 48-48S74.5 0 48 0zm0 86.8C26.6 86.8 9.2 69.4 9.2 48S26.6 9.2 48 9.2 86.8 26.6 86.8 48 69.4 86.8 48 86.8zm-9.2-44.3c3.1 0 5.5-2.5 5.5-5.5s-2.5-5.5-5.5-5.5c-3.1 0-5.5 2.5-5.5 5.5s2.4 5.5 5.5 5.5zm18.4 0c3.1 0 5.5-2.5 5.5-5.5s-2.5-5.5-5.5-5.5c-3.1 0-5.5 2.5-5.5 5.5s2.5 5.5 5.5 5.5z"/>
</svg>
