<svg xmlns="http://www.w3.org/2000/svg" viewBox="0 0 96 96">
  <path d="M48 0C21.5 0 0 21.5 0 48s21.5 48 48 48 48-21.5 48-48S74.5 0 48 0zm0 86.8C26.6 86.8 9.2 69.4 9.2 48S26.6 9.2 48 9.2 86.8 26.6 86.8 48 69.4 86.8 48 86.8zm-3.7-48c0-3.1-2.5-5.5-5.5-5.5-3.1 0-5.5 2.5-5.5 5.5s2.5 5.5 5.5 5.5 5.5-2.5 5.5-5.5zm12.9-5.6c-3.1 0-5.5 2.5-5.5 5.5s2.5 5.5 5.5 5.5c3.1 0 5.5-2.5 5.5-5.5s-2.4-5.5-5.5-5.5zm.8 19.6c-1.4-1.4-3.8-1.4-5.2 0L48 57.5l-4.8-4.8c-1.4-1.4-3.8-1.4-5.2 0-1.4 1.4-1.4 3.8 0 5.2l4.8 4.8-4.8 4.8c-1.4 1.4-1.4 3.8 0 5.2.7.7 1.7 1.1 2.6 1.1.9 0 1.9-.4 2.6-1.1L48 68l4.8 4.8c.7.7 1.7 1.1 2.6 1.1.9 0 1.9-.4 2.6-1.1 1.4-1.4 1.4-3.8 0-5.2l-4.8-4.8L58 58c1.4-1.4 1.4-3.8 0-5.2z"/>
</svg>
