<svg xmlns="http://www.w3.org/2000/svg" viewBox="0 0 96 96">
  <path d="M70.6 61.1c-1.6-1.3-3.9-1-5.2.6-3.6 4.5-8.6 7.5-14.3 8.3-2 .3-3.4 2.2-3.1 4.2.3 1.8 1.8 3.2 3.7 3.2h.5c7.5-1.1 14.3-5 19-11 1.3-1.8 1-4.1-.6-5.3zM48 0C21.5 0 0 21.5 0 48s21.5 48 48 48 48-21.5 48-48S74.5 0 48 0zm0 86.8C26.6 86.8 9.2 69.4 9.2 48S26.6 9.2 48 9.2 86.8 26.6 86.8 48 69.4 86.8 48 86.8zm25.8-56H22.2c-4.1 0-7.4 3.3-7.4 7.4 0 9.2 7.4 16.6 16.6 16.6 9.2 0 16.6-7.4 16.6-16.6 0 9.2 7.4 16.6 16.6 16.6 9.2 0 16.6-7.4 16.6-16.6 0-4.1-3.3-7.4-7.4-7.4z"/>
</svg>
