<svg xmlns="http://www.w3.org/2000/svg" viewBox="0 0 96 96">
  <path d="M14.8 44.3V48c0 18.3 14.9 33.2 33.2 33.2 18.3 0 33.2-14.9 33.2-33.2v-3.7H14.8zm20.3 26.1c-6.7-3.9-11.5-10.7-12.7-18.7h12.7v18.7zm18.4 2.8c-1.8.4-3.6.6-5.5.6s-3.8-.2-5.5-.6V51.7h11.1v21.5zm7.4-2.8V51.7h12.7c-1.2 8-6 14.8-12.7 18.7zM48 0C21.5 0 0 21.5 0 48s21.5 48 48 48 48-21.5 48-48S74.5 0 48 0zm0 86.8C26.6 86.8 9.2 69.4 9.2 48S26.6 9.2 48 9.2 86.8 26.6 86.8 48 69.4 86.8 48 86.8zM36.9 33.2c3.1 0 5.5-2.5 5.5-5.5s-2.5-5.5-5.5-5.5c-3.1 0-5.5 2.5-5.5 5.5s2.5 5.5 5.5 5.5zm22.2 0c3.1 0 5.5-2.5 5.5-5.5s-2.5-5.5-5.5-5.5c-3.1 0-5.5 2.5-5.5 5.5s2.4 5.5 5.5 5.5z"/>
</svg>
